<?xml version="1.0" encoding="utf-8"?>
<!-- Generator: Adobe Illustrator 23.1.0, SVG Export Plug-In . SVG Version: 6.00 Build 0)  -->
<svg version="1.1" id="join-fanduel-logo" xmlns="http://www.w3.org/2000/svg" xmlns:xlink="http://www.w3.org/1999/xlink" x="0px"
	 y="0px" viewBox="0 0 179 32" style="enable-background:new 0 0 179 32;" xml:space="preserve">
<style type="text/css">
	.st0{fill:#FFFFFF;}
</style>
<title></title>
<path class="st0" d="M42.5,26.3H46c0.2,0,0.3-0.1,0.3-0.3v-8.1h6.2c0.1,0,0.2-0.1,0.3-0.2l1.1-3.1c0-0.1,0-0.3-0.2-0.3
	c0,0-0.1,0-0.1,0h-7.3V9.3h9.4c0.1,0,0.2-0.1,0.3-0.2L57,6c0-0.1,0-0.3-0.2-0.3c0,0-0.1,0-0.1,0H42.5c-0.2,0-0.3,0.1-0.3,0.3V26
	C42.2,26.2,42.4,26.3,42.5,26.3z M64.8,5.8L57.5,26c0,0.1,0,0.3,0.2,0.3c0,0,0.1,0,0.1,0h3.6c0.1,0,0.2-0.1,0.3-0.2l1.2-3.5h7.3
	l1.2,3.5c0,0.1,0.1,0.2,0.3,0.2h3.6c0.2,0,0.3-0.1,0.3-0.3c0,0,0-0.1,0-0.1L68.1,5.8c0-0.1-0.1-0.2-0.3-0.2h-2.8
	C65,5.7,64.9,5.7,64.8,5.8z M64,19.3l2.6-7.5l2.5,7.5C69.1,19.3,64,19.3,64,19.3z M92,18.3L83.9,5.8c-0.1-0.1-0.1-0.1-0.2-0.1h-3.2
	c-0.2,0-0.3,0.1-0.3,0.3c0,0,0,0,0,0V26c0,0.2,0.1,0.3,0.3,0.3l0,0H84c0.2,0,0.3-0.1,0.3-0.3l0,0V13.6l8.1,12.6
	c0.1,0.1,0.1,0.1,0.2,0.1h3.2c0.2,0,0.3-0.1,0.3-0.3l0,0V5.9c0-0.2-0.1-0.3-0.3-0.3l0,0h-3.5c-0.2,0-0.3,0.1-0.3,0.3c0,0,0,0,0,0
	C92,5.9,92,18.3,92,18.3z M134.9,19.1c0,2.4-1.4,3.8-3.6,3.8c-2.2,0-3.6-1.4-3.6-3.8V5.9c0-0.2-0.1-0.3-0.3-0.3l0,0H124
	c-0.2,0-0.3,0.1-0.3,0.3c0,0,0,0,0,0v13.3c0,4.4,3.4,7.3,7.6,7.3c4.2,0,7.6-2.9,7.6-7.3V5.9c0-0.2-0.1-0.3-0.3-0.3l0,0h-3.4
	c-0.2,0-0.3,0.1-0.3,0.3c0,0,0,0,0,0L134.9,19.1L134.9,19.1z M159.1,9.1l1.1-3.1c0-0.1,0-0.3-0.2-0.3c0,0-0.1,0-0.1,0h-14.2
	c-0.2,0-0.3,0.1-0.3,0.3c0,0,0,0,0,0V26c0,0.2,0.1,0.3,0.3,0.3l0,0H160c0.2,0,0.3-0.1,0.3-0.3c0,0,0-0.1,0-0.1l-1.1-3.1
	c0-0.1-0.1-0.2-0.3-0.2h-9.4v-5h7.6c0.2,0,0.3-0.1,0.3-0.3c0,0,0,0,0,0v-3.1c0-0.2-0.1-0.3-0.3-0.3l0,0h-7.6V9.3h9.4
	C159,9.3,159.1,9.2,159.1,9.1z M177.6,22.7h-8.5V5.9c0-0.2-0.1-0.3-0.3-0.3c0,0,0,0,0,0h-3.5c-0.2,0-0.3,0.1-0.3,0.3c0,0,0,0,0,0V26
	c0,0.2,0.1,0.3,0.3,0.3l0,0h13.4c0.2,0,0.3-0.1,0.3-0.3c0,0,0-0.1,0-0.1l-1.1-3.1C177.8,22.8,177.7,22.7,177.6,22.7z M115.8,7.6
	c-1.4-1.4-3.3-2-5.5-2h-8.2c-0.2,0-0.3,0.1-0.3,0.3c0,0,0,0,0,0.1l0.6,3.1c0,0.1,0.1,0.2,0.3,0.2h7.2c1.4,0,2.3,0.4,3,1.3
	c0.8,0.9,0.9,2.2,0.9,5.4s-0.1,4.6-0.9,5.5c-0.7,0.8-1.6,1.3-3,1.3h-3V12c0-0.2-0.1-0.3-0.3-0.3l0,0h-3.5c-0.2,0-0.3,0.1-0.3,0.3
	c0,0,0,0,0,0V26c0,0.2,0.1,0.3,0.3,0.3l0,0h7.2c2.1,0,4.1-0.6,5.5-2c2.3-2.3,2.1-5.3,2.1-8.4S118.1,10,115.8,7.6z M32,4.4
	c0-0.1,0-0.2-0.1-0.2c0,0,0,0-0.1,0c-4.1-2.3-8.6-3.7-13.2-4.1c0,0,0,0-0.1,0c-0.1,0-0.2,0-0.2,0.1l0,0c-1.3,1.6-2.3,3.4-3.2,5.3
	c0,0,0,0.1,0.1,0.1c0,0,0,0,0,0h0c0.3,0,0.5,0,0.8,0c3.5,0,6.9,0.7,10.1,2c-0.9,7-4.6,13.3-10.1,17.6c-1.1-0.9-2.2-1.8-3.1-2.8l0,0
	c0,0-0.1,0-0.1,0c0,0,0,0,0,0.1v0c0.5,3.3,1.6,6.4,3.2,9.3l0,0c0.1,0.1,0.2,0.1,0.2,0c0,0,0,0,0,0C25.9,26.2,32,15.8,32,4.4L32,4.4
	C32,4.5,32,4.5,32,4.4z"/>
<path class="st0" d="M12.8,29.7c-1.3-3.2-2.1-6.6-2.3-10v0c0-0.1,0-0.1,0-0.1l0,0c-0.6-0.9-1.2-1.8-1.7-2.8c0.5-0.2,1-0.5,1.6-0.7
	c0.1,0,0.2-0.1,0.2-0.2c0,0,0,0,0-0.1v0c0.1-1.9,0.4-3.9,0.9-5.7c0,0,0,0,0,0c0-0.1,0-0.1-0.1-0.1c0,0,0,0,0,0
	c-1.6,0.3-3.2,0.9-4.7,1.6C6.3,10.2,6,9,5.9,7.7c2.2-0.9,4.5-1.5,6.8-1.8h0c0.1,0,0.2-0.1,0.3-0.2c0.8-1.9,1.8-3.8,3-5.5
	c0,0,0,0,0-0.1C16.1,0.1,16,0,16,0C10.4,0,5,1.5,0.1,4.2l0,0C0,4.3,0,4.4,0,4.5v0c0,9.9,4.7,19.3,12.6,25.3l0,0
	C12.7,29.8,12.8,29.8,12.8,29.7C12.8,29.8,12.8,29.7,12.8,29.7C12.8,29.7,12.8,29.7,12.8,29.7L12.8,29.7z"/>
</svg>
